<svg width="629" height="643" viewBox="0 0 629 643" fill="none" xmlns="http://www.w3.org/2000/svg">
<path opacity="0.3" d="M-190.292 575.408C-183.762 605.678 -159.172 629.838 -129.972 638.848C-99.7224 648.178 -67.9724 638.748 -46.7724 615.458C-26.3224 592.968 -16.6724 559.458 -27.8524 530.358C-38.3124 503.138 -68.1424 479.488 -97.9624 492.628C-123.142 503.728 -137.862 536.628 -126.872 562.328C-115.882 588.028 -85.1224 600.518 -58.5624 595.818C-25.0524 589.878 -6.56238 557.318 2.80762 527.548C14.2276 491.488 15.9076 449.478 42.1876 419.938C62.9076 396.648 95.1876 385.228 126.018 387.548C141.467 388.609 156.408 393.507 169.488 401.798C183.678 410.968 195.828 426.618 197.488 443.878C199.338 463.078 184.608 476.878 166.118 478.268C145.788 479.778 128.018 467.458 112.588 455.748C83.1276 433.378 53.7976 404.748 44.7176 367.588C36.7176 334.678 45.7776 295.098 77.1076 277.648C112.628 257.868 155.018 271.948 186.358 292.918C203.358 304.298 218.868 317.828 234.358 331.148C250.108 344.688 265.778 358.348 282.168 371.148C313.248 395.368 347.358 416.498 386.098 425.608C422.438 434.158 461.518 431.608 493.708 411.438C523.708 392.698 544.878 362.438 558.448 330.258C575.448 290.058 582.128 246.358 590.268 203.758L616.388 67.1179L628.908 1.59784C629.178 0.187866 627.018 -0.402161 626.738 0.997864L600.928 135.998C592.538 179.918 585.108 224.148 575.268 267.768C566.498 306.598 553.728 345.548 528.458 376.978C517.268 390.898 503.838 403.138 488.278 412.028C471.281 421.572 452.281 426.994 432.808 427.858C348.098 432.208 283.188 369.468 223.298 318.738C194.758 294.578 162.978 269.738 124.298 266.418C107.578 264.968 90.0976 267.618 75.3876 276.008C62.114 283.737 51.8072 295.684 46.1076 309.948C33.4576 340.728 40.3276 375.398 57.7576 402.778C67.5276 418.078 80.1076 431.408 93.7076 443.308C107.608 455.458 122.878 468.168 139.928 475.548C154.448 481.828 172.338 483.258 185.998 473.998C198.198 465.718 202.058 451.058 198.568 437.188C190.968 406.978 160.378 389.528 131.318 385.838C102.498 382.188 71.9476 390.618 49.7076 409.458C21.4176 433.458 14.6276 470.918 6.48763 505.168C-1.21237 537.608 -14.2024 577.438 -48.3924 590.668C-75.7024 601.238 -111.892 589.898 -124.392 562.398C-137.042 534.618 -117.392 496.758 -87.1024 491.678C-50.8024 485.578 -25.0024 525.238 -25.3724 557.288C-25.7424 589.338 -46.3724 620.678 -75.5924 633.888C-106.012 647.618 -142.012 637.978 -165.352 615.248C-176.75 604.314 -184.662 590.255 -188.092 574.838C-188.402 573.408 -190.562 574.028 -190.292 575.408Z" fill="#9A97ED"/>
</svg>
